<?xml version="1.0" encoding="UTF-8" standalone="no"?>
<!-- Created with Inkscape (http://www.inkscape.org/) -->

<svg
   xmlns:dc="http://purl.org/dc/elements/1.1/"
   xmlns:cc="http://creativecommons.org/ns#"
   xmlns:rdf="http://www.w3.org/1999/02/22-rdf-syntax-ns#"
   xmlns:svg="http://www.w3.org/2000/svg"
   xmlns="http://www.w3.org/2000/svg"
   xmlns:sodipodi="http://sodipodi.sourceforge.net/DTD/sodipodi-0.dtd"
   xmlns:inkscape="http://www.inkscape.org/namespaces/inkscape"
   width="73.377815mm"
   height="28.222219mm"
   viewBox="0 0 260.00013 99.99999"
   id="svg4370"
   version="1.1"
   inkscape:version="0.91 r13725"
   sodipodi:docname="bottom.svg">
  <defs
     id="defs4372" />
  <sodipodi:namedview
     id="base"
     pagecolor="#ffffff"
     bordercolor="#666666"
     borderopacity="1.0"
     inkscape:pageopacity="0.0"
     inkscape:pageshadow="2"
     inkscape:zoom="0.7"
     inkscape:cx="494.04268"
     inkscape:cy="-246.52541"
     inkscape:document-units="px"
     inkscape:current-layer="layer1"
     showgrid="false"
     fit-margin-top="0"
     fit-margin-left="0"
     fit-margin-right="0"
     fit-margin-bottom="0"
     inkscape:window-width="1436"
     inkscape:window-height="855"
     inkscape:window-x="208"
     inkscape:window-y="0"
     inkscape:window-maximized="0" />
  <metadata
     id="metadata4375">
    <rdf:RDF>
      <cc:Work
         rdf:about="">
        <dc:format>image/svg+xml</dc:format>
        <dc:type
           rdf:resource="http://purl.org/dc/dcmitype/StillImage" />
        <dc:title></dc:title>
      </cc:Work>
    </rdf:RDF>
  </metadata>
  <g
     inkscape:label="Layer 1"
     inkscape:groupmode="layer"
     id="layer1"
     transform="translate(-212.30258,-299.70534)">
    <path
       style="fill:#a0ca92;fill-opacity:1;fill-rule:evenodd;stroke:none;stroke-width:1;stroke-linecap:butt;stroke-linejoin:miter;stroke-miterlimit:4;stroke-dasharray:none;stroke-opacity:0.25477708"
       d="m 284.01831,368.99975 0,-20 -20,-19.99999 -20,0 -20,19.99999 0,20 20,20 20,0 z"
       id="path4342"
       inkscape:connector-curvature="0"
       inkscape:export-xdpi="150"
       inkscape:export-ydpi="150" />
    <path
       style="fill:#75b09c;fill-opacity:1;fill-rule:evenodd;stroke:none;stroke-width:1;stroke-linecap:butt;stroke-linejoin:miter;stroke-miterlimit:4;stroke-dasharray:none;stroke-opacity:0.25477708"
       d="m 283.81016,369.40076 0,-20 20,-19.99999 20,0 20,19.99999 0,20 -20,20 -20,0 z"
       id="path4344"
       inkscape:connector-curvature="0"
       inkscape:export-xdpi="150"
       inkscape:export-ydpi="150" />
    <path
       inkscape:connector-curvature="0"
       id="path4346"
       d="m 346.43962,368.89568 0,-20 20,-19.99999 20,0 20,19.99999 0,20 -20,20 -20,0 z"
       style="fill:#998650;fill-opacity:1;fill-rule:evenodd;stroke:none;stroke-width:1;stroke-linecap:butt;stroke-linejoin:miter;stroke-miterlimit:4;stroke-dasharray:none;stroke-opacity:0.25477708"
       inkscape:export-xdpi="150"
       inkscape:export-ydpi="150" />
    <path
       style="fill:#b9c410;fill-opacity:1;fill-rule:evenodd;stroke:none;stroke-width:1;stroke-linecap:butt;stroke-linejoin:miter;stroke-miterlimit:4;stroke-dasharray:none;stroke-opacity:0.25477708"
       d="m 403.00816,369.40076 0,-20 20,-19.99999 20,0 20,19.99999 0,20 -20,20 -20,0 z"
       id="path4348"
       inkscape:connector-curvature="0"
       inkscape:export-xdpi="150"
       inkscape:export-ydpi="150" />
    <path
       inkscape:export-ydpi="150"
       inkscape:export-xdpi="150"
       sodipodi:nodetypes="cccccc"
       inkscape:connector-curvature="0"
       id="path4350"
       d="m 212.30271,399.70533 0,-20 -1.3e-4,-19.99999 20,0 20,19.99999 0,20"
       style="fill:#b9c410;fill-opacity:1;fill-rule:evenodd;stroke:none;stroke-width:1;stroke-linecap:butt;stroke-linejoin:miter;stroke-miterlimit:4;stroke-dasharray:none;stroke-opacity:0.25477708" />
    <path
       inkscape:connector-curvature="0"
       inkscape:export-ydpi="150"
       inkscape:export-xdpi="150"
       id="path4352"
       d="m 252.30258,399.70533 0,-20 20,-19.99999 20,0 20,19.99999 0,20"
       style="fill:#d8f793;fill-opacity:1;fill-rule:evenodd;stroke:none;stroke-width:1;stroke-linecap:butt;stroke-linejoin:miter;stroke-miterlimit:4;stroke-dasharray:none;stroke-opacity:0.25477708" />
    <path
       inkscape:connector-curvature="0"
       inkscape:export-ydpi="150"
       inkscape:export-xdpi="150"
       id="path4354"
       d="m 312.30258,399.70533 0,-20 20,-19.99999 20,0 20,19.99999 0,20"
       style="fill:#a0ca92;fill-opacity:1;fill-rule:evenodd;stroke:none;stroke-width:1;stroke-linecap:butt;stroke-linejoin:miter;stroke-miterlimit:4;stroke-dasharray:none;stroke-opacity:0.25477708" />
    <path
       inkscape:connector-curvature="0"
       inkscape:export-ydpi="150"
       inkscape:export-xdpi="150"
       id="path4356"
       d="m 372.30258,399.70533 0,-20 20,-19.99999 20,0 20,19.99999 0,20"
       style="fill:#75b09c;fill-opacity:1;fill-rule:evenodd;stroke:none;stroke-width:1;stroke-linecap:butt;stroke-linejoin:miter;stroke-miterlimit:4;stroke-dasharray:none;stroke-opacity:0.25477708" />
    <path
       inkscape:export-ydpi="150"
       inkscape:export-xdpi="150"
       sodipodi:nodetypes="cccccc"
       inkscape:connector-curvature="0"
       id="path4358"
       d="m 432.30258,399.70533 0,-20 20,-19.99999 20,0 1.3e-4,19.99999 0,20"
       style="fill:#998650;fill-opacity:1;fill-rule:evenodd;stroke:none;stroke-width:1;stroke-linecap:butt;stroke-linejoin:miter;stroke-miterlimit:4;stroke-dasharray:none;stroke-opacity:0.25477708" />
    <path
       inkscape:connector-curvature="0"
       inkscape:export-ydpi="150"
       inkscape:export-xdpi="150"
       id="path4360"
       d="m 472.30258,299.70534 -20,0 -20,19.99999 0,20 20,20 20,0"
       style="fill:#a0ca92;fill-opacity:1;fill-rule:evenodd;stroke:none;stroke-width:1;stroke-linecap:butt;stroke-linejoin:miter;stroke-miterlimit:4;stroke-dasharray:none;stroke-opacity:0.25477708" />
    <path
       inkscape:connector-curvature="0"
       id="path4362"
       d="m 432.30258,339.70533 0,-20 -20,-19.99999 -20,0 -20,19.99999 0,20 20,20 20,0 z"
       style="fill:#d8f793;fill-opacity:1;fill-rule:evenodd;stroke:none;stroke-width:1;stroke-linecap:butt;stroke-linejoin:miter;stroke-miterlimit:4;stroke-dasharray:none;stroke-opacity:0.25477708"
       inkscape:export-xdpi="150"
       inkscape:export-ydpi="150" />
    <path
       style="fill:#b9c410;fill-opacity:1;fill-rule:evenodd;stroke:none;stroke-width:1;stroke-linecap:butt;stroke-linejoin:miter;stroke-miterlimit:4;stroke-dasharray:none;stroke-opacity:0.25477708"
       d="m 372.30258,339.70533 0,-20 -20,-19.99999 -20,0 -20,19.99999 0,20 20,20 20,0 z"
       id="path4364"
       inkscape:connector-curvature="0"
       inkscape:export-xdpi="150"
       inkscape:export-ydpi="150" />
    <path
       inkscape:connector-curvature="0"
       id="path4366"
       d="m 312.30258,339.70533 0,-20 -20,-19.99999 -20,0 -20,19.99999 0,20 20,20 20,0 z"
       style="fill:#998650;fill-opacity:1;fill-rule:evenodd;stroke:none;stroke-width:1;stroke-linecap:butt;stroke-linejoin:miter;stroke-miterlimit:4;stroke-dasharray:none;stroke-opacity:0.25477708"
       inkscape:export-xdpi="150"
       inkscape:export-ydpi="150" />
    <path
       inkscape:connector-curvature="0"
       inkscape:export-ydpi="150"
       inkscape:export-xdpi="150"
       id="path4368"
       d="m 212.30258,359.70533 20,0 20,-20 0,-20 -20,-19.99999 -20,0"
       style="fill:#75b09c;fill-opacity:1;fill-rule:evenodd;stroke:none;stroke-width:1;stroke-linecap:butt;stroke-linejoin:miter;stroke-miterlimit:4;stroke-dasharray:none;stroke-opacity:0.25477708" />
  </g>
</svg>
